<?xml version="1.0" encoding="utf-8"?>
<!-- Generator: Adobe Illustrator 25.0.0, SVG Export Plug-In . SVG Version: 6.00 Build 0)  -->
<svg version="1.1" id="Layer_1" xmlns="http://www.w3.org/2000/svg" xmlns:xlink="http://www.w3.org/1999/xlink" x="0px" y="0px"
	 viewBox="0 0 20 20" style="enable-background:new 0 0 20 20;" xml:space="preserve">
<style type="text/css">
	.st0{fill-rule:evenodd;clip-rule:evenodd;fill:#A7AAAD;}
</style>
<path class="st0" d="M12.4,10c0,1.3-1.1,2.4-2.4,2.4c-1.3,0-2.4-1.1-2.4-2.4c0-1.3,1.1-2.4,2.4-2.4C11.3,7.6,12.4,8.7,12.4,10z
	 M10,17.1c-3.9,0-7.1-3.2-7.1-7.1c0-3.9,3.2-7.1,7.1-7.1c3.4,0,6.2,2.4,6.9,5.5h-2.5c-0.7-1.8-2.4-3.2-4.5-3.2
	c-2.6,0-4.7,2.1-4.7,4.8c0,2.6,2.1,4.8,4.7,4.8c2.3,0,4.1-1.6,4.6-3.7H17C16.5,14.5,13.6,17.1,10,17.1z M10,0.5
	c-5.2,0-9.5,4.3-9.5,9.5c0,5.2,4.3,9.5,9.5,9.5c5.2,0,9.5-4.3,9.5-9.5C19.5,4.8,15.2,0.5,10,0.5z"/>
</svg>
