<?xml version="1.0" encoding="utf-8"?>
<!-- Generator: Adobe Illustrator 25.0.0, SVG Export Plug-In . SVG Version: 6.00 Build 0)  -->
<svg version="1.1" id="Layer_1" xmlns="http://www.w3.org/2000/svg" xmlns:xlink="http://www.w3.org/1999/xlink" x="0px" y="0px"
	 viewBox="0 0 256 256" style="enable-background:new 0 0 256 256;" xml:space="preserve">
<style type="text/css">
	.st0{fill-rule:evenodd;clip-rule:evenodd;fill:#F9950B;}
</style>
<path class="st0" d="M158.5,128c0,16.8-13.7,30.5-30.5,30.5c-16.8,0-30.5-13.7-30.5-30.5c0-16.8,13.6-30.5,30.5-30.5
	C144.8,97.5,158.5,111.2,158.5,128z M128,219.5c-50.5,0-91.5-40.9-91.5-91.4c0-50.5,40.9-91.5,91.5-91.5c43.5,0,79.8,30.4,89.1,71.1
	h-31.7C177,84,154.5,67,128,67c-33.7,0-61,27.3-61,61c0,33.7,27.3,61,61,61c29,0,53.2-20.2,59.4-47.3h30.9
	C211.7,185.7,173.9,219.5,128,219.5z M128,6.1C60.7,6.1,6.1,60.7,6.1,128c0,67.3,54.6,121.9,121.9,121.9
	c67.3,0,121.9-54.6,121.9-121.9C249.9,60.7,195.3,6.1,128,6.1z"/>
</svg>
